<svg width="116" height="116" viewBox="0 0 116 116" fill="none" xmlns="http://www.w3.org/2000/svg">
<g opacity="0.5">
<rect x="35.6949" y="89.0678" width="25.4915" height="15.9322" rx="0.8" stroke="#DBDBDB" stroke-width="5.2" stroke-linecap="round" stroke-linejoin="round"/>
<path d="M86.678 105V92.3991C86.6785 83.9996 81.1308 76.6075 73.0601 74.2537C69.9176 73.343 67.7562 70.4662 67.7585 67.1972V54.5963C67.7585 44.1574 59.2879 35.6949 48.839 35.6949C38.39 35.6949 29.9195 44.1574 29.9195 54.5963V67.1972C29.9199 70.4647 27.7589 73.3392 24.6178 74.2495C16.5472 76.6033 10.9995 83.9954 11 92.3949V104.996" stroke="#DBDBDB" stroke-width="5.2" stroke-linecap="round" stroke-linejoin="round"/>
<path d="M30.1187 54.8136L37.0161 51.2915C44.4586 47.4904 53.2194 47.4904 60.6619 51.2915L67.5593 54.8136" stroke="#DBDBDB" stroke-width="5.2" stroke-linecap="round" stroke-linejoin="round"/>
<path d="M30.1187 67.5593L37.0161 71.0814C44.4586 74.8825 53.2194 74.8825 60.6619 71.0814L67.5593 67.5593" stroke="#DBDBDB" stroke-width="5.2" stroke-linecap="round" stroke-linejoin="round"/>
<path d="M11 92.2542V64.1737C11 59.0043 15.2799 54.8136 20.5593 54.8136" stroke="#DBDBDB" stroke-width="5.2" stroke-linecap="round" stroke-linejoin="round"/>
<path d="M86.678 92.2542V64.1737C86.678 59.0043 82.3981 54.8136 77.1187 54.8136" stroke="#DBDBDB" stroke-width="5.2" stroke-linecap="round" stroke-linejoin="round"/>
<path d="M55.2119 11V23.7458" stroke="#DBDBDB" stroke-width="5.2" stroke-linecap="round" stroke-linejoin="round"/>
<path d="M48.4407 16.9746H61.1864" stroke="#DBDBDB" stroke-width="5.2" stroke-linecap="round" stroke-linejoin="round"/>
<path d="M99.0255 42.0678V54.8136" stroke="#DBDBDB" stroke-width="5.2" stroke-linecap="round" stroke-linejoin="round"/>
<path d="M92.2543 48.839H105" stroke="#DBDBDB" stroke-width="5.2" stroke-linecap="round" stroke-linejoin="round"/>
<path d="M85.8814 11C85.8259 18.0162 80.1518 23.6903 73.1356 23.7458C80.1518 23.8012 85.8259 29.4753 85.8814 36.4915C85.9368 29.4753 91.611 23.8012 98.6271 23.7458C91.611 23.6903 85.9368 18.0162 85.8814 11" stroke="#DBDBDB" stroke-width="5.2" stroke-linecap="round" stroke-linejoin="round"/>
</g>
</svg>
